<mxfile host="app.diagrams.net" modified="2023-06-01T22:52:04.013Z" agent="Mozilla/5.0 (Windows NT 10.0; Win64; x64; rv:109.0) Gecko/20100101 Firefox/113.0" etag="pIRD_q5OGeHEi2EGaDKw" version="21.3.6" type="device">
  <diagram name="PÃ¡gina-1" id="AkZxREEf8pHwHUIA_Qvx">
    <mxGraphModel dx="3695" dy="2733" grid="1" gridSize="10" guides="1" tooltips="1" connect="1" arrows="1" fold="1" page="1" pageScale="1" pageWidth="827" pageHeight="1169" math="0" shadow="0">
      <root>
        <mxCell id="0" />
        <mxCell id="1" parent="0" />
        <mxCell id="sxwjnrB2hspwtcYdxN5p-2" value="&lt;div style=&quot;font-size: 51px;&quot;&gt;&lt;font style=&quot;font-size: 51px;&quot;&gt;&lt;br&gt;NODE &lt;br&gt;&lt;/font&gt;&lt;/div&gt;&lt;div style=&quot;font-size: 51px;&quot;&gt;&lt;font style=&quot;font-size: 51px;&quot;&gt;&lt;br&gt;&lt;/font&gt;&lt;/div&gt;" style="ellipse;whiteSpace=wrap;html=1;aspect=fixed;rounded=0;sketch=1;curveFitting=1;jiggle=2;" parent="1" vertex="1">
          <mxGeometry x="345" y="1320" width="350" height="350" as="geometry" />
        </mxCell>
        <mxCell id="sxwjnrB2hspwtcYdxN5p-3" value="" style="rounded=0;whiteSpace=wrap;html=1;fillColor=#ffff88;sketch=1;curveFitting=1;jiggle=2;strokeColor=#36393d;" parent="1" vertex="1">
          <mxGeometry x="-520" y="-350" width="2170" height="1180" as="geometry" />
        </mxCell>
        <mxCell id="sxwjnrB2hspwtcYdxN5p-4" value="&lt;font style=&quot;font-size: 60px;&quot;&gt;Pascal Javascript Interpreter&lt;br&gt;&lt;/font&gt;" style="text;html=1;strokeColor=none;fillColor=none;align=center;verticalAlign=middle;whiteSpace=wrap;rounded=0;sketch=1;curveFitting=1;jiggle=2;" parent="1" vertex="1">
          <mxGeometry x="160" y="-470" width="660" height="120" as="geometry" />
        </mxCell>
        <mxCell id="sxwjnrB2hspwtcYdxN5p-8" value="&lt;font style=&quot;font-size: 31px;&quot;&gt;Lexical Analysis&lt;/font&gt;" style="rounded=0;whiteSpace=wrap;html=1;sketch=1;curveFitting=1;jiggle=2;" parent="1" vertex="1">
          <mxGeometry x="-50" y="180" width="240" height="130" as="geometry" />
        </mxCell>
        <mxCell id="sxwjnrB2hspwtcYdxN5p-9" value="&lt;font style=&quot;font-size: 27px;&quot;&gt;Syntatic Analysis&lt;/font&gt;" style="rounded=0;whiteSpace=wrap;html=1;sketch=1;curveFitting=1;jiggle=2;" parent="1" vertex="1">
          <mxGeometry x="810" y="180" width="240" height="130" as="geometry" />
        </mxCell>
        <mxCell id="sxwjnrB2hspwtcYdxN5p-11" value="&lt;font style=&quot;font-size: 16px;&quot;&gt;&amp;lt;I&amp;gt;&lt;br&gt;Token Tree&lt;br&gt;Interface&lt;br&gt;&lt;/font&gt;" style="rounded=0;whiteSpace=wrap;html=1;sketch=1;curveFitting=1;jiggle=2;" parent="1" vertex="1">
          <mxGeometry x="390" y="180" width="190" height="70" as="geometry" />
        </mxCell>
        <mxCell id="sxwjnrB2hspwtcYdxN5p-41" style="edgeStyle=orthogonalEdgeStyle;rounded=0;orthogonalLoop=1;jettySize=auto;html=1;entryX=1;entryY=0.5;entryDx=0;entryDy=0;sketch=1;curveFitting=1;jiggle=2;strokeWidth=12;fillColor=#f8cecc;strokeColor=#b85450;" parent="1" source="sxwjnrB2hspwtcYdxN5p-17" target="sxwjnrB2hspwtcYdxN5p-35" edge="1">
          <mxGeometry relative="1" as="geometry" />
        </mxCell>
        <mxCell id="sxwjnrB2hspwtcYdxN5p-17" value="&lt;div&gt;&lt;font style=&quot;font-size: 30px;&quot;&gt;Javascript Pascal Interpreter Output&lt;/font&gt;&lt;/div&gt;" style="rounded=0;whiteSpace=wrap;html=1;sketch=1;curveFitting=1;jiggle=2;" parent="1" vertex="1">
          <mxGeometry x="360" y="630" width="320" height="160" as="geometry" />
        </mxCell>
        <mxCell id="sxwjnrB2hspwtcYdxN5p-26" value="" style="shape=parallelogram;perimeter=parallelogramPerimeter;whiteSpace=wrap;html=1;fixedSize=1;fillColor=#b1ddf0;rounded=0;sketch=1;curveFitting=1;jiggle=2;strokeColor=#10739e;strokeWidth=12;" parent="1" vertex="1">
          <mxGeometry x="-60" y="-210" width="1400" height="300" as="geometry" />
        </mxCell>
        <mxCell id="sxwjnrB2hspwtcYdxN5p-27" value="&lt;font style=&quot;font-size: 60px;&quot;&gt;Entities&lt;/font&gt;" style="text;html=1;strokeColor=none;fillColor=none;align=center;verticalAlign=middle;whiteSpace=wrap;rounded=0;sketch=1;curveFitting=1;jiggle=2;" parent="1" vertex="1">
          <mxGeometry x="220" y="-300" width="570" height="100" as="geometry" />
        </mxCell>
        <mxCell id="sxwjnrB2hspwtcYdxN5p-32" style="edgeStyle=orthogonalEdgeStyle;rounded=0;orthogonalLoop=1;jettySize=auto;html=1;sketch=1;curveFitting=1;jiggle=2;strokeWidth=12;fillColor=#f8cecc;strokeColor=#b85450;" parent="1" source="sxwjnrB2hspwtcYdxN5p-29" target="sxwjnrB2hspwtcYdxN5p-31" edge="1">
          <mxGeometry relative="1" as="geometry">
            <Array as="points">
              <mxPoint x="330" y="-70" />
              <mxPoint x="330" y="-70" />
            </Array>
          </mxGeometry>
        </mxCell>
        <mxCell id="sxwjnrB2hspwtcYdxN5p-29" value="&lt;font style=&quot;font-size: 42px;&quot;&gt;Token&lt;/font&gt;" style="ellipse;whiteSpace=wrap;html=1;aspect=fixed;rounded=0;sketch=1;curveFitting=1;jiggle=2;" parent="1" vertex="1">
          <mxGeometry x="455" y="-180" width="220" height="220" as="geometry" />
        </mxCell>
        <mxCell id="sxwjnrB2hspwtcYdxN5p-30" value="&lt;font style=&quot;font-size: 42px;&quot;&gt;Exception&lt;/font&gt;" style="ellipse;whiteSpace=wrap;html=1;aspect=fixed;rounded=0;sketch=1;curveFitting=1;jiggle=2;" parent="1" vertex="1">
          <mxGeometry x="1030" y="-187.5" width="235" height="235" as="geometry" />
        </mxCell>
        <mxCell id="sxwjnrB2hspwtcYdxN5p-31" value="&lt;div style=&quot;font-size: 36px;&quot;&gt;&lt;font style=&quot;font-size: 36px;&quot;&gt;Token Specify&lt;br&gt; Entities&lt;/font&gt;&lt;/div&gt;&lt;div style=&quot;font-size: 20px;&quot;&gt;&lt;font style=&quot;font-size: 20px;&quot;&gt;&lt;br&gt;&lt;/font&gt;&lt;/div&gt;" style="ellipse;whiteSpace=wrap;html=1;aspect=fixed;rounded=0;sketch=1;curveFitting=1;jiggle=2;" parent="1" vertex="1">
          <mxGeometry x="-15" y="-172.5" width="205" height="205" as="geometry" />
        </mxCell>
        <mxCell id="sxwjnrB2hspwtcYdxN5p-48" style="edgeStyle=orthogonalEdgeStyle;rounded=0;orthogonalLoop=1;jettySize=auto;html=1;sketch=1;curveFitting=1;jiggle=2;strokeWidth=12;fillColor=#f8cecc;strokeColor=#b85450;" parent="1" source="sxwjnrB2hspwtcYdxN5p-35" target="sxwjnrB2hspwtcYdxN5p-8" edge="1">
          <mxGeometry relative="1" as="geometry" />
        </mxCell>
        <mxCell id="sxwjnrB2hspwtcYdxN5p-35" value="&lt;div style=&quot;font-size: 32px;&quot;&gt;&lt;font style=&quot;font-size: 32px;&quot;&gt;&amp;lt;i&amp;gt;&lt;br&gt;&lt;/font&gt;&lt;/div&gt;&lt;div style=&quot;font-size: 32px;&quot;&gt;&lt;font style=&quot;font-size: 32px;&quot;&gt;Lexical Analysis Hash Table&lt;/font&gt;&lt;/div&gt;" style="rounded=0;whiteSpace=wrap;html=1;sketch=1;curveFitting=1;jiggle=2;" parent="1" vertex="1">
          <mxGeometry x="-230" y="490" width="273" height="140" as="geometry" />
        </mxCell>
        <mxCell id="sxwjnrB2hspwtcYdxN5p-37" value="&lt;font style=&quot;font-size: 47px;&quot;&gt;Error display&lt;/font&gt;" style="rounded=0;whiteSpace=wrap;html=1;sketch=1;curveFitting=1;jiggle=2;fillColor=default;" parent="1" vertex="1">
          <mxGeometry x="1120" y="430" width="470" height="150" as="geometry" />
        </mxCell>
        <mxCell id="sxwjnrB2hspwtcYdxN5p-38" value="&lt;font style=&quot;font-size: 52px;&quot;&gt;Warning Display&lt;br&gt;&lt;/font&gt;" style="rounded=0;whiteSpace=wrap;html=1;sketch=1;curveFitting=1;jiggle=2;" parent="1" vertex="1">
          <mxGeometry x="285" y="430" width="470" height="150" as="geometry" />
        </mxCell>
        <mxCell id="sxwjnrB2hspwtcYdxN5p-72" style="edgeStyle=orthogonalEdgeStyle;rounded=0;orthogonalLoop=1;jettySize=auto;html=1;sketch=1;curveFitting=1;jiggle=2;fillColor=#f8cecc;strokeColor=#b85450;strokeWidth=12;exitX=1;exitY=0.5;exitDx=0;exitDy=0;" parent="1" source="sxwjnrB2hspwtcYdxN5p-17" edge="1">
          <mxGeometry relative="1" as="geometry">
            <mxPoint x="680" y="660" as="sourcePoint" />
            <mxPoint x="1365" y="570" as="targetPoint" />
          </mxGeometry>
        </mxCell>
        <mxCell id="sxwjnrB2hspwtcYdxN5p-73" style="edgeStyle=orthogonalEdgeStyle;rounded=0;orthogonalLoop=1;jettySize=auto;html=1;sketch=1;curveFitting=1;jiggle=2;fillColor=#f8cecc;strokeColor=#b85450;strokeWidth=12;entryX=1;entryY=0.5;entryDx=0;entryDy=0;" parent="1" target="sxwjnrB2hspwtcYdxN5p-9" edge="1">
          <mxGeometry relative="1" as="geometry">
            <mxPoint x="1130" y="495" as="sourcePoint" />
            <mxPoint x="1040" y="245" as="targetPoint" />
          </mxGeometry>
        </mxCell>
        <mxCell id="sxwjnrB2hspwtcYdxN5p-74" style="edgeStyle=orthogonalEdgeStyle;rounded=0;orthogonalLoop=1;jettySize=auto;html=1;sketch=1;curveFitting=1;jiggle=2;strokeWidth=12;fillColor=#f8cecc;strokeColor=#b85450;" parent="1" edge="1">
          <mxGeometry relative="1" as="geometry">
            <mxPoint x="755" y="455" as="sourcePoint" />
            <mxPoint x="930" y="310" as="targetPoint" />
          </mxGeometry>
        </mxCell>
        <mxCell id="sxwjnrB2hspwtcYdxN5p-75" style="edgeStyle=orthogonalEdgeStyle;rounded=0;orthogonalLoop=1;jettySize=auto;html=1;sketch=1;curveFitting=1;jiggle=2;strokeWidth=12;fillColor=#f8cecc;strokeColor=#b85450;exitX=-0.013;exitY=0.415;exitDx=0;exitDy=0;exitPerimeter=0;" parent="1" source="sxwjnrB2hspwtcYdxN5p-9" target="sxwjnrB2hspwtcYdxN5p-11" edge="1">
          <mxGeometry relative="1" as="geometry">
            <mxPoint x="810" y="245" as="sourcePoint" />
            <mxPoint x="605" y="245" as="targetPoint" />
          </mxGeometry>
        </mxCell>
        <mxCell id="sxwjnrB2hspwtcYdxN5p-76" style="edgeStyle=orthogonalEdgeStyle;rounded=0;orthogonalLoop=1;jettySize=auto;html=1;sketch=1;curveFitting=1;jiggle=2;strokeWidth=12;fillColor=#f8cecc;strokeColor=#b85450;entryX=0.5;entryY=1;entryDx=0;entryDy=0;exitX=0.564;exitY=-0.024;exitDx=0;exitDy=0;exitPerimeter=0;" parent="1" source="sxwjnrB2hspwtcYdxN5p-9" target="sxwjnrB2hspwtcYdxN5p-30" edge="1">
          <mxGeometry relative="1" as="geometry">
            <mxPoint x="940" y="190" as="sourcePoint" />
            <mxPoint x="812" y="50" as="targetPoint" />
          </mxGeometry>
        </mxCell>
        <mxCell id="sxwjnrB2hspwtcYdxN5p-79" style="edgeStyle=orthogonalEdgeStyle;rounded=0;orthogonalLoop=1;jettySize=auto;html=1;sketch=1;curveFitting=1;jiggle=2;fillColor=#f8cecc;strokeColor=#b85450;strokeWidth=12;exitX=0.5;exitY=0;exitDx=0;exitDy=0;entryX=0.5;entryY=1;entryDx=0;entryDy=0;" parent="1" source="sxwjnrB2hspwtcYdxN5p-17" target="sxwjnrB2hspwtcYdxN5p-38" edge="1">
          <mxGeometry relative="1" as="geometry">
            <mxPoint x="690" y="670" as="sourcePoint" />
            <mxPoint x="1375" y="580" as="targetPoint" />
          </mxGeometry>
        </mxCell>
        <mxCell id="sxwjnrB2hspwtcYdxN5p-81" style="edgeStyle=orthogonalEdgeStyle;rounded=0;orthogonalLoop=1;jettySize=auto;html=1;sketch=1;curveFitting=1;jiggle=2;strokeWidth=12;fillColor=#f8cecc;strokeColor=#b85450;exitX=-0.001;exitY=0.608;exitDx=0;exitDy=0;exitPerimeter=0;" parent="1" source="sxwjnrB2hspwtcYdxN5p-11" target="sxwjnrB2hspwtcYdxN5p-8" edge="1">
          <mxGeometry relative="1" as="geometry">
            <mxPoint x="820" y="255" as="sourcePoint" />
            <mxPoint x="591" y="255" as="targetPoint" />
          </mxGeometry>
        </mxCell>
        <mxCell id="sxwjnrB2hspwtcYdxN5p-82" value="&lt;font style=&quot;font-size: 25px;&quot;&gt;&amp;lt;I&amp;gt;&lt;br&gt;RUN ENGINE&lt;/font&gt;" style="shape=parallelogram;perimeter=parallelogramPerimeter;whiteSpace=wrap;html=1;fixedSize=1;" parent="1" vertex="1">
          <mxGeometry x="395" y="960" width="250" height="120" as="geometry" />
        </mxCell>
        <mxCell id="sxwjnrB2hspwtcYdxN5p-87" style="edgeStyle=orthogonalEdgeStyle;rounded=0;orthogonalLoop=1;jettySize=auto;html=1;sketch=1;curveFitting=1;jiggle=2;strokeWidth=12;fillColor=#f8cecc;strokeColor=#b85450;entryX=0.5;entryY=1;entryDx=0;entryDy=0;" parent="1" source="sxwjnrB2hspwtcYdxN5p-2" target="sxwjnrB2hspwtcYdxN5p-82" edge="1">
          <mxGeometry relative="1" as="geometry">
            <mxPoint x="530" y="800" as="sourcePoint" />
            <mxPoint x="530" y="970" as="targetPoint" />
          </mxGeometry>
        </mxCell>
        <mxCell id="sxwjnrB2hspwtcYdxN5p-90" style="edgeStyle=orthogonalEdgeStyle;rounded=0;orthogonalLoop=1;jettySize=auto;html=1;sketch=1;curveFitting=1;jiggle=2;strokeWidth=12;fillColor=#f8cecc;strokeColor=#b85450;exitX=0.605;exitY=1.027;exitDx=0;exitDy=0;exitPerimeter=0;" parent="1" source="sxwjnrB2hspwtcYdxN5p-29" target="sxwjnrB2hspwtcYdxN5p-11" edge="1">
          <mxGeometry relative="1" as="geometry">
            <mxPoint x="817" y="244" as="sourcePoint" />
            <mxPoint x="601" y="245" as="targetPoint" />
          </mxGeometry>
        </mxCell>
        <mxCell id="sxwjnrB2hspwtcYdxN5p-91" style="edgeStyle=orthogonalEdgeStyle;rounded=0;orthogonalLoop=1;jettySize=auto;html=1;sketch=1;curveFitting=1;jiggle=2;fillColor=#f8cecc;strokeColor=#b85450;strokeWidth=12;exitX=0.5;exitY=0;exitDx=0;exitDy=0;entryX=0.5;entryY=1;entryDx=0;entryDy=0;" parent="1" source="sxwjnrB2hspwtcYdxN5p-82" target="sxwjnrB2hspwtcYdxN5p-17" edge="1">
          <mxGeometry relative="1" as="geometry">
            <mxPoint x="690" y="720" as="sourcePoint" />
            <mxPoint x="1375" y="580" as="targetPoint" />
            <Array as="points" />
          </mxGeometry>
        </mxCell>
        <mxCell id="sxwjnrB2hspwtcYdxN5p-92" value="&lt;font style=&quot;font-size: 16px;&quot;&gt;Token Tree&lt;br&gt;Implementation&lt;br&gt;&lt;/font&gt;" style="rounded=0;whiteSpace=wrap;html=1;sketch=1;curveFitting=1;jiggle=2;" parent="1" vertex="1">
          <mxGeometry x="630" y="310" width="120" height="80" as="geometry" />
        </mxCell>
        <mxCell id="sxwjnrB2hspwtcYdxN5p-94" style="edgeStyle=orthogonalEdgeStyle;rounded=0;orthogonalLoop=1;jettySize=auto;html=1;sketch=1;curveFitting=1;jiggle=2;strokeWidth=12;fillColor=#f8cecc;strokeColor=#b85450;" parent="1" source="sxwjnrB2hspwtcYdxN5p-92" target="sxwjnrB2hspwtcYdxN5p-11" edge="1">
          <mxGeometry relative="1" as="geometry">
            <mxPoint x="817" y="244" as="sourcePoint" />
            <mxPoint x="590" y="225" as="targetPoint" />
          </mxGeometry>
        </mxCell>
        <mxCell id="sxwjnrB2hspwtcYdxN5p-95" value="&lt;font style=&quot;font-size: 20px;&quot;&gt;Lexical Analysis Hash Table Implementation&lt;/font&gt;" style="rounded=1;whiteSpace=wrap;html=1;" parent="1" vertex="1">
          <mxGeometry x="-510" y="620" width="193" height="80" as="geometry" />
        </mxCell>
        <mxCell id="sxwjnrB2hspwtcYdxN5p-98" style="edgeStyle=orthogonalEdgeStyle;rounded=0;orthogonalLoop=1;jettySize=auto;html=1;sketch=1;curveFitting=1;jiggle=2;strokeWidth=12;fillColor=#f8cecc;strokeColor=#b85450;exitX=0.5;exitY=0;exitDx=0;exitDy=0;" parent="1" source="sxwjnrB2hspwtcYdxN5p-95" target="sxwjnrB2hspwtcYdxN5p-35" edge="1">
          <mxGeometry relative="1" as="geometry">
            <mxPoint x="-84" y="500" as="sourcePoint" />
            <mxPoint x="80" y="320" as="targetPoint" />
          </mxGeometry>
        </mxCell>
      </root>
    </mxGraphModel>
  </diagram>
</mxfile>
